<?xml version="1.0" standalone="no"?>
<!DOCTYPE svg PUBLIC "-//W3C//DTD SVG 20010904//EN"
 "http://www.w3.org/TR/2001/REC-SVG-20010904/DTD/svg10.dtd">
<svg version="1.0" xmlns="http://www.w3.org/2000/svg"
 width="128.000000pt" height="128.000000pt" viewBox="0 0 128.000000 128.000000"
 preserveAspectRatio="xMidYMid meet">

<g transform="translate(0.000000,128.000000) scale(0.100000,-0.100000)"
fill="#000000" stroke="none">
<path d="M772 1223 c-32 -51 -66 -142 -77 -208 -11 -66 -9 -65 -72 -39 -39 16
-78 24 -120 24 -59 0 -67 3 -120 44 -86 67 -208 123 -307 142 -39 7 -39 7 -32
-22 10 -43 143 -166 221 -205 36 -17 65 -36 65 -42 0 -5 -18 -46 -41 -91 -41
-81 -47 -124 -25 -177 5 -12 -4 -20 -39 -33 -85 -33 -102 -103 -38 -164 l37
-35 -33 -91 c-44 -121 -49 -145 -39 -181 6 -23 4 -33 -10 -42 -34 -24 -43 -35
-39 -46 6 -17 150 -11 190 7 18 8 46 16 62 19 32 6 178 -18 207 -34 34 -19
173 -50 196 -44 12 3 22 12 22 19 0 16 -42 52 -71 61 -15 5 -17 10 -9 25 6 10
10 32 10 49 0 26 4 31 24 31 25 0 36 16 36 56 0 21 4 24 20 19 16 -5 26 5 55
49 20 31 39 56 43 56 4 0 43 -11 87 -25 118 -37 119 -36 208 53 42 42 77 83
77 89 0 22 -190 80 -322 98 -52 7 -53 7 -38 36 8 14 6 25 -6 44 -18 28 -53 32
-113 15 -19 -5 -36 -8 -38 -6 -6 5 36 180 58 241 42 118 50 340 13 352 -6 2
-25 -18 -42 -44z m24 -113 c26 -39 26 -42 14 -102 -6 -35 -23 -90 -36 -124
-13 -33 -24 -69 -24 -79 0 -10 -5 -45 -12 -77 -9 -42 -16 -58 -28 -58 -18 0
-54 -35 -63 -62 -3 -9 0 -24 8 -34 13 -18 14 -18 33 -1 11 10 26 31 32 47 12
30 38 42 113 56 30 5 37 3 37 -10 0 -9 5 -16 10 -16 17 0 11 -29 -10 -50 -11
-11 -20 -22 -20 -25 0 -3 23 -5 50 -5 86 0 306 -54 335 -81 12 -12 -129 -149
-153 -149 -9 0 -53 11 -97 25 -44 14 -88 25 -97 25 -10 0 -29 -23 -48 -55 -29
-50 -33 -54 -61 -48 -17 3 -29 1 -29 -5 0 -5 -9 -8 -20 -5 -11 3 -20 9 -20 13
0 4 -3 22 -7 40 l-6 33 37 -6 c43 -7 40 -11 59 96 l15 78 -52 -49 c-28 -27
-62 -54 -74 -61 -19 -10 -22 -20 -22 -80 0 -40 7 -84 16 -106 19 -46 21 -110
4 -130 -7 -9 -11 -17 -9 -18 2 -1 15 -8 29 -15 40 -21 64 -41 57 -49 -8 -8
-159 28 -168 40 -3 4 -37 16 -75 25 -83 20 -200 19 -223 -2 -9 -9 -49 -18 -96
-22 -72 -6 -79 -6 -67 8 7 9 26 21 43 28 26 11 28 15 16 29 -29 33 -27 54 17
181 l45 129 -34 20 c-84 49 -44 151 60 151 l36 0 -16 30 c-14 28 -14 30 10 54
27 27 31 53 14 101 -10 27 -8 38 15 86 14 31 26 58 26 61 0 3 -12 9 -27 13
-16 3 -52 20 -81 38 -41 24 -54 39 -62 67 -11 41 -13 64 -4 73 11 11 158 -71
202 -111 37 -34 44 -37 91 -34 57 4 139 -18 182 -49 15 -10 29 -19 32 -19 3 0
9 21 12 48 9 67 44 182 55 182 5 0 22 -18 36 -40z m-29 -690 c-10 -50 -10 -51
-46 -48 -34 3 -36 1 -42 -32 l-6 -35 -2 42 c-1 38 3 44 50 82 29 23 53 41 54
41 1 0 -2 -23 -8 -50z m-80 -142 c-3 -8 -6 -5 -6 6 -1 11 2 17 5 13 3 -3 4
-12 1 -19z"/>
<path d="M370 855 c-6 -8 -9 -23 -5 -35 9 -27 58 -24 63 4 3 11 0 16 -7 12
-18 -12 -34 4 -20 20 9 11 8 14 -4 14 -8 0 -20 -7 -27 -15z"/>
<path d="M625 776 c-17 -39 35 -71 58 -35 6 9 7 25 3 35 -7 18 -8 18 -17 2 -6
-10 -14 -18 -19 -18 -5 0 -10 8 -13 18 -4 16 -5 16 -12 -2z"/>
<path d="M430 713 c0 -29 3 -34 12 -25 29 29 113 -6 92 -39 -4 -8 -3 -10 5 -5
6 4 18 20 26 36 14 28 14 29 -21 49 -20 12 -53 21 -75 21 -38 0 -39 -1 -39
-37z"/>
</g>
</svg>
